# xmcd
#
# Track frame offsets:
#	150
#	16395
#	28623
#	44857
#	56442
#	68163
#	83271
#	100893
#	119751
#	138197
#	155533
#	170578
#	189238
#	205768
#	217261
#	235961
#	251780
#	268790
#	286462
#	299565
#	318000
#	333418
#
# Disc length: 4691 seconds
#
# Revision: 1
# Processed by: cddbd v1.5PL3 Copyright (c) Steve Scherf et al.
# Submitted via: audiograbber 1.81.03
#
DISCID=4f125116
DTITLE=Юрий Антонов - Лучшие лирические
DYEAR=2002
DGENRE=Pop
TTITLE0=Зеркало
TTITLE1=Море
TTITLE2=Двадцать лет спустя
TTITLE3=Моё богадство
TTITLE4=Крыша дома твоего
TTITLE5=Вот так бывает
TTITLE6=Не говорите мне прощай
TTITLE7=На улице каштановой
TTITLE8=Переулочки Арбата
TTITLE9=Не забывай
TTITLE10=Белый теплоход
TTITLE11=От печиали до радости
TTITLE12=Хмельная сирень
TTITLE13=Снегири
TTITLE14=Тебе
TTITLE15=У берёз и сосен
TTITLE16=Я иду к тебе на встречу
TTITLE17=18 - ноу нэйм
TTITLE18=Анастасия
TTITLE19=Несёт меня течение
TTITLE20=Каникулы
TTITLE21=Долгожданный самолёт
EXTD=Russian singer and compouser
EXTT0=
EXTT1=
EXTT2=
EXTT3=
EXTT4=
EXTT5=
EXTT6=
EXTT7=
EXTT8=
EXTT9=
EXTT10=
EXTT11=
EXTT12=
EXTT13=
EXTT14=
EXTT15=
EXTT16=
EXTT17=
EXTT18=
EXTT19=
EXTT20=
EXTT21=
PLAYORDER=
